<?xml version="1.0" standalone="no"?>
<!DOCTYPE svg PUBLIC "-//W3C//DTD SVG 20010904//EN"
 "http://www.w3.org/TR/2001/REC-SVG-20010904/DTD/svg10.dtd">
<svg version="1.0" xmlns="http://www.w3.org/2000/svg"
 width="678.000000pt" height="1280.000000pt" viewBox="0 0 678.000000 1280.000000"
 preserveAspectRatio="xMidYMid meet">
<metadata>
Created by potrace 1.15, written by Peter Selinger 2001-2017
</metadata>
<g transform="translate(0.000000,1280.000000) scale(0.100000,-0.100000)"
fill="#ff9800" stroke="none">
<path d="M2213 12718 c-28 -46 -63 -108 -78 -138 -15 -30 -29 -56 -30 -58 -1
-2 -31 19 -66 45 -84 64 -220 133 -347 177 -57 20 -109 36 -116 36 -9 0 -7
-42 10 -167 39 -282 54 -387 61 -412 7 -26 9 -25 -63 -5 -20 5 -20 3 12 -233
17 -132 35 -259 39 -282 8 -48 13 -46 -62 -25 -21 6 -22 3 -18 -22 10 -54 64
-469 61 -471 -1 -2 -48 13 -104 31 l-102 35 6 -52 c5 -47 3 -54 -19 -76 l-26
-23 -22 53 c-24 56 -228 471 -235 478 -3 3 -17 -11 -33 -30 l-29 -34 -24 30
c-12 16 -95 110 -183 209 l-160 179 -27 -59 c-15 -32 -41 -104 -59 -159 -18
-55 -33 -101 -34 -103 -2 -2 -34 12 -71 31 -123 61 -280 106 -431 123 -56 6
-63 5 -63 -11 0 -28 129 -431 175 -548 7 -17 4 -18 -40 -11 -45 6 -48 5 -41
-12 4 -11 41 -125 83 -254 41 -129 80 -244 85 -254 10 -17 7 -18 -36 -14 -25
3 -46 2 -46 -3 0 -7 144 -461 157 -496 3 -9 -4 -13 -20 -13 -29 0 -37 32 73
-305 39 -121 74 -229 77 -239 5 -16 2 -18 -15 -14 -12 4 -22 1 -22 -4 0 -34
177 -548 214 -623 56 -113 72 -136 142 -207 85 -85 229 -154 367 -173 44 -7
47 -9 47 -37 0 -28 2 -30 28 -23 68 19 60 35 124 -265 399 -1885 638 -3176
783 -4224 41 -293 42 -342 19 -871 l-15 -370 -74 -320 c-133 -577 -222 -1021
-289 -1445 -19 -118 -34 -215 -33 -216 5 -3 163 -118 170 -123 7 -7 -56 -382
-99 -579 -29 -136 -29 -142 -6 -142 9 0 116 33 237 73 l220 74 22 154 c21 143
43 311 59 452 11 97 18 97 248 -13 108 -51 198 -91 201 -88 3 2 -2 87 -11 188
-10 119 -13 190 -7 200 10 15 1 389 -12 538 -4 39 -4 72 -1 72 3 0 35 -14 70
-32 36 -18 68 -29 72 -26 3 4 -1 89 -10 190 -54 626 -69 1315 -45 2038 l11
335 64 225 c172 612 407 1361 713 2280 182 543 492 1463 496 1468 2 2 22 -6
44 -17 l42 -20 6 29 c6 31 1 30 147 46 225 23 394 162 530 431 37 74 216 463
216 469 0 2 -11 4 -25 4 -24 0 -25 1 -11 23 16 24 221 466 231 498 5 15 1 19
-19 19 l-25 0 33 68 c43 84 196 421 196 429 0 3 -21 3 -46 -1 -35 -4 -45 -3
-41 7 3 6 57 122 120 257 l114 245 -43 3 c-49 3 -51 7 -27 42 9 13 68 134 130
270 l112 245 -77 3 c-144 6 -360 -30 -469 -78 l-43 -19 -5 22 c-2 12 -11 58
-20 102 -8 44 -25 110 -36 148 -19 63 -22 68 -37 55 -71 -60 -298 -262 -343
-306 l-57 -54 -24 41 -24 41 -146 -223 c-81 -122 -152 -235 -159 -250 -7 -15
-17 -27 -22 -27 -6 0 -8 3 -4 6 6 7 -53 60 -63 57 -4 -1 22 109 56 245 35 136
64 248 64 248 0 1 -17 -2 -37 -7 -21 -5 -41 -9 -44 -9 -4 0 2 30 13 68 33 117
128 501 128 516 0 12 -6 13 -32 5 -18 -5 -38 -9 -44 -9 -8 0 6 69 36 190 30
121 44 190 36 190 -6 0 -26 -4 -45 -10 -31 -9 -33 -8 -26 13 28 94 145 570
141 575 -10 10 -271 -60 -356 -95 -47 -19 -111 -51 -143 -70 -32 -19 -59 -34
-61 -32 -1 2 -15 38 -31 79 -46 123 -93 210 -113 210 -15 -1 -258 -302 -316
-392 l-19 -30 -31 37 -31 37 -39 -94 c-21 -51 -72 -173 -112 -271 -40 -98 -75
-179 -78 -180 -3 -1 -22 11 -41 26 -25 20 -36 24 -39 15 -3 -7 -27 -114 -55
-238 -45 -205 -59 -272 -76 -382 -6 -38 -6 -38 -30 -22 -18 12 -25 25 -25 48
0 17 -12 142 -27 278 l-27 248 -42 -25 c-24 -14 -45 -25 -47 -25 -2 0 -7 16
-10 36 -4 21 -39 149 -78 285 l-72 248 -35 -29 -36 -29 -32 57 c-79 142 -242
397 -255 400 -8 1 -35 -31 -66 -80z m726 -4045 l49 -48 -44 -305 c-67 -476
-151 -1125 -228 -1775 l-24 -200 -1 145 c0 80 -6 464 -12 854 l-11 708 32 39
c49 61 97 166 124 269 24 93 56 281 56 334 0 14 2 26 5 26 3 0 27 -21 54 -47z
m736 -132 c11 -34 81 -137 121 -175 l39 -38 -74 -211 c-202 -586 -432 -1268
-686 -2042 -36 -110 -63 -184 -61 -165 3 19 10 71 15 115 54 422 266 1935 327
2328 l17 108 26 -6 c14 -3 34 -8 44 -11 13 -4 17 1 17 25 0 25 5 32 28 36 15
4 59 17 97 29 39 13 73 24 77 25 4 0 9 -8 13 -18z m-1865 -571 c25 -18 130
-69 201 -98 22 -9 26 -15 21 -38 -5 -27 -4 -27 41 -22 l45 5 6 -91 c3 -50 8
-185 11 -301 26 -1000 35 -1388 33 -1391 -2 -1 -23 102 -47 229 -54 293 -213
1085 -289 1450 -32 152 -57 277 -54 277 2 0 17 -9 32 -20z"/>
</g>
</svg>
